#!OML:ASF G:\JayActor3\Patient Classification 1\Patient 1\Session 5\male.ASF
:FULLY-SPECIFIED
:DEGREES
432
root 5.98304 13.8897 -6.4113 238.236 -69.7108 122.798
lowerback 29.7027 0.997645 -3.0105
upperback 17.2639 -2.1596 -8.90662
thorax 2.85287 -1.78359 -7.28122
lowerneck -5.36327 1.59351 -2.27189
upperneck 40.64 -0.195175 0.52409
head 15.0691 -0.964002 0.44401
rclavicle -8.24956e-015 3.75703e-014
rhumerus 13.1391 46.3494 -26.9128
rradius 102.621
rwrist -29.3334
rhand 42.3836 -9.98491
rfingers 7.12502
rthumb 64.3392 -18.225
lclavicle -8.24956e-015 3.75703e-014
lhumerus 7.19136 -23.4487 40.7407
lradius 109.619
lwrist 58.3556
lhand 36.6929 44.1451
lfingers 7.12502
lthumb 59.6019 58.3367
rfemur -55.9082 -14.827 -6.50836
rtibia 88.0954
rfoot -24.6323 -0.821161
rtoes -14.2763
lfemur -42.846 21.1328 -33.1548
ltibia 74.5806
lfoot -27.1023 12.7179
ltoes -16.3599
433
root 5.97963 13.8811 -6.41174 237.833 -69.5191 122.937
lowerback 29.8679 1.05716 -3.01259
upperback 17.3691 -2.13178 -9.04022
thorax 2.89757 -1.77422 -7.43404
lowerneck -5.37186 1.64509 -2.29621
upperneck 40.5641 -0.0457948 0.395236
head 15.03 -0.916579 0.414921
rclavicle 4.63168e-014 2.80286e-014
rhumerus 13.6906 48.3895 -26.1851
rradius 100.067
rwrist -26.5909
rhand 42.001 -10.2199
rfingers 7.12502
rthumb 64.0318 -18.9306
lclavicle 4.63168e-014 2.80286e-014
lhumerus 7.70484 -25.1293 40.1931
lradius 106.398
lwrist 54.6519
lhand 36.5033 43.9569
lfingers 7.12502
lthumb 59.4389 58.313
rfemur -55.6939 -14.3441 -6.73184
rtibia 88.1682
rfoot -24.8096 -1.12453
rtoes -14.6373
lfemur -42.4029 21.1159 -33.1771
ltibia 74.4459
lfoot -27.3105 13.0066
ltoes -16.2453
434
root 5.97523 13.8767 -6.41608 237.476 -69.3797 123.024
lowerback 30.0096 1.11058 -3.0053
upperback 17.4748 -2.10375 -9.14819
thorax 2.95374 -1.76428 -7.56536
lowerneck -5.37691 1.69515 -2.31295
upperneck 40.4867 0.102856 0.256471
head 14.9898 -0.869538 0.380241
rclavicle 2.75317e-014 -1.59028e-015
rhumerus 14.2428 50.2505 -25.538
rradius 97.3914
rwrist -23.9278
rhand 41.4136 -10.4874
rfingers 7.12502
rthumb 63.5561 -19.8987
lclavicle 2.75317e-014 -1.59028e-015
lhumerus 8.24263 -26.6819 39.6691
lradius 103.022
lwrist 50.8384
lhand 36.0583 43.5534
lfingers 7.12502
lthumb 59.0553 58.2887
rfemur -55.4105 -13.8488 -6.90621
rtibia 88.1948
rfoot -25.0085 -1.47183
rtoes -14.9821
lfemur -41.928 21.0729 -33.1415
ltibia 74.2764
lfoot -27.4765 13.2649
ltoes -16.1305
435
root 5.96969 13.8767 -6.42429 237.157 -69.2898 123.068
lowerback 30.1279 1.15897 -2.98991
upperback 17.5792 -2.0743 -9.23186
thorax 3.01954 -1.75315 -7.676
lowerneck -5.37715 1.74438 -2.3213
upperneck 40.409 0.250604 0.109362
head 14.9489 -0.822739 0.340456
rclavicle -4.16454e-014 6.16232e-015
rhumerus 14.7756 51.9391 -24.9902
rradius 94.6082
rwrist -21.3507
rhand 40.626 -10.7927
rfingers 7.12502
rthumb 62.9121 -21.1026
lclavicle -4.16454e-014 6.16232e-015
lhumerus 8.799 -28.1105 39.1714
lradius 99.5033
lwrist 46.9168
lhand 35.3626 42.9215
lfingers 7.12502
lthumb 58.4526 58.2297
rfemur -55.0596 -13.3407 -7.03142
rtibia 88.1746
rfoot -25.2264 -1.86146
rtoes -15.3076
lfemur -41.4208 21.0071 -33.0505
ltibia 74.0707
lfoot -27.6008 13.4931
ltoes -16.0164
436
root 5.96304 13.8811 -6.43646 236.886 -69.2502 123.058
lowerback 30.2215 1.20129 -2.96687
upperback 17.6834 -2.04462 -9.29229
thorax 3.09614 -1.7414 -7.76652
lowerneck -5.37334 1.79268 -2.31871
upperneck 40.3307 0.396693 -0.0454268
head 14.9074 -0.776031 0.2953
rclavicle -6.95746e-015 -3.28989e-014
rhumerus 15.2675 53.4589 -24.5633
rradius 91.7308
rwrist -18.8659
rhand 39.655 -11.1441
rfingers 7.12502
rthumb 62.1086 -22.5021
lclavicle -6.95746e-015 -3.28989e-014
lhumerus 9.36968 -29.4187 38.7013
lradius 95.8612
lwrist 42.9119
lhand 34.3848 42.0717
lfingers 7.12502
lthumb 57.6 58.1467
rfemur -54.6396 -12.8249 -7.10876
rtibia 88.108
rfoot -25.4615 -2.29037
rtoes -15.6108
lfemur -40.8803 20.9171 -32.9067
ltibia 73.8279
lfoot -27.6825 13.6917
ltoes -15.9059
437
root 5.95524 13.8898 -6.45262 236.662 -69.2601 122.998
lowerback 30.2887 1.23784 -2.93783
upperback 17.7864 -2.01447 -9.3298
thorax 3.18334 -1.72901 -7.83633
lowerneck -5.36413 1.84078 -2.30534
upperneck 40.2507 0.541813 -0.20684
head 14.8644 -0.729018 0.245351
rclavicle -1.47101e-014 -2.03754e-014
rhumerus 15.6996 54.8189 -24.2715
rradius 88.7759
rwrist -16.4949
rhand 38.4921 -11.5641
rfingers 7.12502
rthumb 61.1338 -24.0963
lclavicle -1.47101e-014 -2.03754e-014
lhumerus 9.94683 -30.6088 38.2624
lradius 92.1172
lwrist 38.8636
lhand 33.1121 41.0373
lfingers 7.12502
lthumb 56.481 58.0476
rfemur -54.1532 -12.3033 -7.1367
rtibia 87.9954
rfoot -25.7112 -2.75542
rtoes -15.8861
lfemur -40.3086 20.8048 -32.7111
ltibia 73.5482
lfoot -27.7222 13.8578
ltoes -15.7957
438
root 5.94623 13.9028 -6.47279 236.488 -69.3189 122.882
lowerback 30.3279 1.26807 -2.90378
upperback 17.8882 -1.98462 -9.34556
thorax 3.28154 -1.71635 -7.8859
lowerneck -5.35013 1.88928 -2.27995
upperneck 40.1697 0.686165 -0.373935
head 14.8206 -0.681365 0.190808
rclavicle -1.03368e-014 6.89783e-014
rhumerus 16.0519 56.0244 -24.1341
rradius 85.7556
rwrist -14.2563
rhand 37.1517 -12.0802
rfingers 7.12502
rthumb 59.995 -25.8657
lclavicle -1.03368e-014 6.89783e-014
lhumerus 10.5221 -31.6826 37.8575
lradius 88.2979
lwrist 34.8224
lhand 31.5472 39.8741
lfingers 7.12502
lthumb 55.0923 57.9458
rfemur -53.6015 -11.7811 -7.11575
rtibia 87.8374
rfoot -25.9743 -3.25364
rtoes -16.1322
lfemur -39.707 20.6712 -32.4667
ltibia 73.232
lfoot -27.7202 13.991
ltoes -15.6862
